# xmcd
#
# Track frame offsets: 
#        150
#        23237
#        39690
#        67430
#        87190
#        107775
#        122660
#        143355
#        162502
#        181312
#        202967
#        234247
#        250122
#        275415
#
# Disc length: 3785 seconds
#
# Revision: 3
# Processed by: cddbd v1.5.2PL0 Copyright (c) Steve Scherf et al.
# Submitted via: ExactAudioCopy v0.99pb4
#
DISCID=c00ec70e
DTITLE=Buffett, Jimmy - Live In Hawaii [CD1]
DYEAR=2005
DGENRE=Rock
TTITLE0=Introduction By Don Ho - Great Heart
TTITLE1=Coconut Telegraph
TTITLE2=Gypsies In The Palace
TTITLE3=In The Shelter
TTITLE4=Burn That Bridge
TTITLE5=Son Of A Son Of A Sailor
TTITLE6=Come Monday
TTITLE7=Natives Are Restless Tonight
TTITLE8=Grapefruit Juicy Fruit
TTITLE9=It's Five O'Clock Somewhere
TTITLE10=One Particular Harbor
TTITLE11=Cheeseburger In Paradise
TTITLE12=We Are The People Our Parents Warned Us About
TTITLE13=Quiet Village (With Denny Martin)
EXTD=YEAR: 2005
EXTT0=
EXTT1=
EXTT2=
EXTT3=
EXTT4=
EXTT5=
EXTT6=
EXTT7=
EXTT8=
EXTT9=
EXTT10=
EXTT11=
EXTT12=
EXTT13=
PLAYORDER=
